{
	"asset":{
		"generator":"Khronos glTF Blender I/O v3.5.30",
		"version":"2.0"
	},
	"scene":0,
	"scenes":[
		{
			"name":"Scene",
			"nodes":[
				0
			]
		}
	],
	"nodes":[
		{
			"mesh":0,
			"name":"Cube"
		}
	],
	"materials":[
		{
			"doubleSided":true,
			"name":"LB",
			"pbrMetallicRoughness":{
				"baseColorFactor":[
					0,
					0.8000000715255737,
					0.800000011920929,
					1
				],
				"metallicFactor":0,
				"roughnessFactor":0.5
			}
		},
		{
			"doubleSided":true,
			"name":"Cube",
			"pbrMetallicRoughness":{
				"baseColorTexture":{
					"index":0
				},
				"metallicFactor":0,
				"roughnessFactor":0.5
			}
		}
	],
	"meshes":[
		{
			"name":"Cube.001",
			"primitives":[
				{
					"attributes":{
						"POSITION":0,
						"TEXCOORD_0":1,
						"NORMAL":2
					},
					"indices":3,
					"material":0
				},
				{
					"attributes":{
						"POSITION":4,
						"TEXCOORD_0":5,
						"NORMAL":6
					},
					"indices":7,
					"material":1
				}
			]
		}
	],
	"textures":[
		{
			"sampler":0,
			"source":0
		}
	],
	"images":[
		{
			"bufferView":8,
			"mimeType":"image/png",
			"name":"Untitled"
		}
	],
	"accessors":[
		{
			"bufferView":0,
			"componentType":5126,
			"count":42,
			"max":[
				2.4289472103118896,
				2.039849042892456,
				3.000000476837158
			],
			"min":[
				-2.0655980110168457,
				-3.9994618892669678,
				-2.999999523162842
			],
			"type":"VEC3"
		},
		{
			"bufferView":1,
			"componentType":5126,
			"count":42,
			"type":"VEC2"
		},
		{
			"bufferView":2,
			"componentType":5126,
			"count":42,
			"type":"VEC3"
		},
		{
			"bufferView":3,
			"componentType":5123,
			"count":90,
			"type":"SCALAR"
		},
		{
			"bufferView":4,
			"componentType":5126,
			"count":114,
			"max":[
				2.4289472103118896,
				2.039849042892456,
				3.000000476837158
			],
			"min":[
				-2.0655980110168457,
				-3.9994618892669678,
				-3.0000007152557373
			],
			"type":"VEC3"
		},
		{
			"bufferView":5,
			"componentType":5126,
			"count":114,
			"type":"VEC2"
		},
		{
			"bufferView":6,
			"componentType":5126,
			"count":114,
			"type":"VEC3"
		},
		{
			"bufferView":7,
			"componentType":5123,
			"count":282,
			"type":"SCALAR"
		}
	],
	"bufferViews":[
		{
			"buffer":0,
			"byteLength":504,
			"byteOffset":0,
			"target":34962
		},
		{
			"buffer":0,
			"byteLength":336,
			"byteOffset":504,
			"target":34962
		},
		{
			"buffer":0,
			"byteLength":504,
			"byteOffset":840,
			"target":34962
		},
		{
			"buffer":0,
			"byteLength":180,
			"byteOffset":1344,
			"target":34963
		},
		{
			"buffer":0,
			"byteLength":1368,
			"byteOffset":1524,
			"target":34962
		},
		{
			"buffer":0,
			"byteLength":912,
			"byteOffset":2892,
			"target":34962
		},
		{
			"buffer":0,
			"byteLength":1368,
			"byteOffset":3804,
			"target":34962
		},
		{
			"buffer":0,
			"byteLength":564,
			"byteOffset":5172,
			"target":34963
		},
		{
			"buffer":0,
			"byteLength":116657,
			"byteOffset":5736
		}
	],
	"samplers":[
		{
			"magFilter":9729,
			"minFilter":9987
		}
	],
	"buffers":[
		{
			"byteLength":122396,
			"uri":"data:application/octet-stream;base64,"
		}
	]
}
